<svg width="66" height="66" viewBox="0 0 66 66" fill="none" xmlns="http://www.w3.org/2000/svg">
<path d="M40.5404 29.3336C37.8421 29.3336 35.6466 31.529 35.6466 34.2273C35.6466 36.926 37.8421 39.1214 40.5404 39.1214C43.2387 39.1214 45.4341 36.926 45.4341 34.2273C45.4341 31.529 43.2387 29.3336 40.5404 29.3336ZM40.5404 36.3714C39.3581 36.3714 38.3966 35.4096 38.3966 34.2273C38.3966 33.0453 39.358 32.0835 40.5404 32.0835C41.7227 32.0835 42.6841 33.0452 42.6841 34.2273C42.6841 35.4096 41.7227 36.3714 40.5404 36.3714Z" fill="black"/>
<path d="M25.4597 29.3336C22.7614 29.3336 20.5659 31.529 20.5659 34.2273C20.5659 36.926 22.7614 39.1214 25.4597 39.1214C28.158 39.1214 30.3534 36.926 30.3534 34.2273C30.3534 31.529 28.158 29.3336 25.4597 29.3336ZM25.4597 36.3714C24.2774 36.3714 23.3159 35.4096 23.3159 34.2273C23.3159 33.0453 24.2773 32.0835 25.4597 32.0835C26.642 32.0835 27.6034 33.0452 27.6034 34.2273C27.6034 35.4096 26.642 36.3714 25.4597 36.3714Z" fill="black"/>
<path d="M55.1733 29.0751H54.0359V24.3968C54.0359 21.2672 51.4901 18.7209 48.36 18.7209H34.375V15.5508C36.4991 14.9497 38.0616 12.998 38.0616 10.6841C38.0616 7.89347 35.791 5.62286 33 5.62286C30.209 5.62286 27.9384 7.89347 27.9384 10.6841C27.9384 12.998 29.501 14.9497 31.625 15.5508V18.7209H17.64C14.5101 18.7209 11.9641 21.2671 11.9641 24.3968V29.0751H10.8268C7.77867 29.0751 5.29858 31.5548 5.29858 34.6029V40.8898C5.29858 43.9375 7.77867 46.4173 10.8268 46.4173H11.9641V51.0955C11.9641 54.2251 14.51 56.7714 17.64 56.7714H48.36C51.49 56.7714 54.0359 54.2252 54.0359 51.0955V46.4173H55.1733C58.2214 46.4173 60.7015 43.9375 60.7015 40.8898V34.6029C60.7015 31.5548 58.2213 29.0751 55.1733 29.0751ZM30.6884 10.6841C30.6884 9.40982 31.7257 8.37286 33 8.37286C34.2743 8.37286 35.3116 9.40982 35.3116 10.6841C35.3116 11.9587 34.2743 12.9957 33 12.9957C31.7257 12.9957 30.6884 11.9587 30.6884 10.6841ZM10.8268 43.6673C9.29468 43.6673 8.04858 42.4212 8.04858 40.8898V34.603C8.04858 33.0712 9.29468 31.8251 10.8268 31.8251H11.9641V43.6674L10.8268 43.6673ZM51.2859 51.0956C51.2859 52.7089 49.9734 54.0215 48.36 54.0215H17.64C16.0267 54.0215 14.7141 52.7089 14.7141 51.0956V45.0423V30.4501V24.3968C14.7141 22.7835 16.0267 21.4709 17.64 21.4709H48.36C49.9734 21.4709 51.2859 22.7835 51.2859 24.3968V30.4501V45.0423V51.0956ZM57.9515 40.8898C57.9515 42.4212 56.7054 43.6673 55.1733 43.6673H54.0359V31.8251H55.1733C56.7054 31.8251 57.9515 33.0712 57.9515 34.6029V40.8898Z" fill="black"/>
</svg>
