<svg width="50" height="50" viewBox="0 0 50 50" fill="none" xmlns="http://www.w3.org/2000/svg">
<g clip-path="url(#clip0_8_233)">
<path d="M44.1406 3.90625H41.7969V0H37.8906V3.90625H12.1094V0H8.20312V3.90625H5.85938C2.62852 3.90625 0 6.53477 0 9.76562V44.1406C0 47.3715 2.62852 50 5.85938 50H44.1406C47.3715 50 50 47.3715 50 44.1406V9.76562C50 6.53477 47.3715 3.90625 44.1406 3.90625ZM46.0938 44.1406C46.0938 45.2176 45.2176 46.0938 44.1406 46.0938H5.85938C4.78242 46.0938 3.90625 45.2176 3.90625 44.1406V18.3594H46.0938V44.1406ZM46.0938 14.4531H3.90625V9.76562C3.90625 8.68867 4.78242 7.8125 5.85938 7.8125H8.20312V11.7188H12.1094V7.8125H37.8906V11.7188H41.7969V7.8125H44.1406C45.2176 7.8125 46.0938 8.68867 46.0938 9.76562V14.4531Z" fill="black"/>
<path d="M11.3281 22.4609H7.42188V26.3672H11.3281V22.4609Z" fill="black"/>
<path d="M19.1406 22.4609H15.2344V26.3672H19.1406V22.4609Z" fill="black"/>
<path d="M26.9531 22.4609H23.0469V26.3672H26.9531V22.4609Z" fill="black"/>
<path d="M34.7656 22.4609H30.8594V26.3672H34.7656V22.4609Z" fill="black"/>
<path d="M42.5781 22.4609H38.6719V26.3672H42.5781V22.4609Z" fill="black"/>
<path d="M11.3281 30.2734H7.42188V34.1797H11.3281V30.2734Z" fill="black"/>
<path d="M19.1406 30.2734H15.2344V34.1797H19.1406V30.2734Z" fill="black"/>
<path d="M26.9531 30.2734H23.0469V34.1797H26.9531V30.2734Z" fill="black"/>
<path d="M34.7656 30.2734H30.8594V34.1797H34.7656V30.2734Z" fill="black"/>
<path d="M11.3281 38.0859H7.42188V41.9922H11.3281V38.0859Z" fill="black"/>
<path d="M19.1406 38.0859H15.2344V41.9922H19.1406V38.0859Z" fill="black"/>
<path d="M26.9531 38.0859H23.0469V41.9922H26.9531V38.0859Z" fill="black"/>
<path d="M34.7656 38.0859H30.8594V41.9922H34.7656V38.0859Z" fill="black"/>
<path d="M42.5781 30.2734H38.6719V34.1797H42.5781V30.2734Z" fill="black"/>
</g>
<defs>
<clipPath id="clip0_8_233">
<rect width="50" height="50" fill="white"/>
</clipPath>
</defs>
</svg>
