<svg width="66" height="66" viewBox="0 0 66 66" fill="none" xmlns="http://www.w3.org/2000/svg">
<path d="M58.6107 28.5574C60.5894 27.049 61.875 24.6744 61.875 22C61.875 17.4501 58.1749 13.75 53.625 13.75C49.0751 13.75 45.375 17.4501 45.375 22C45.375 24.684 46.6689 27.0641 48.6585 28.5725C48.4481 28.666 48.2323 28.7457 48.0288 28.8516C47.355 29.2009 47.091 30.0314 47.4402 30.7051C47.7909 31.3802 48.6227 31.6415 49.2937 31.2922C50.6082 30.6102 52.107 30.25 53.625 30.25C58.9311 30.25 63.25 34.5675 63.25 39.875V45.375C63.25 47.6493 61.3993 49.5 59.125 49.5H52.1675C51.4071 49.5 50.7925 50.116 50.7925 50.875C50.7925 51.634 51.4071 52.25 52.1675 52.25H59.125C62.9159 52.25 66 49.1659 66 45.375V39.875C66 34.826 62.9571 30.4796 58.6107 28.5574ZM48.125 22C48.125 18.9667 50.5917 16.5 53.625 16.5C56.6582 16.5 59.125 18.9667 59.125 22C59.125 25.0332 56.6582 27.5 53.625 27.5C50.5917 27.5 48.125 25.0332 48.125 22Z" fill="black"/>
<path d="M18.5597 30.7051C18.909 30.0314 18.645 29.2009 17.9712 28.8516C17.7677 28.7457 17.5519 28.666 17.3415 28.5725C19.3311 27.0655 20.625 24.684 20.625 22C20.625 17.4501 16.9249 13.75 12.375 13.75C7.82512 13.75 4.125 17.4501 4.125 22C4.125 24.6744 5.41062 27.049 7.38925 28.5574C3.04288 30.4796 0 34.826 0 39.875V45.375C0 49.1659 3.08413 52.25 6.875 52.25H13.8325C14.5929 52.25 15.2075 51.634 15.2075 50.875C15.2075 50.116 14.5929 49.5 13.8325 49.5H6.875C4.60075 49.5 2.75 47.6493 2.75 45.375V39.875C2.75 34.5675 7.06887 30.25 12.375 30.25C13.893 30.25 15.3917 30.6102 16.7062 31.2922C17.3759 31.6388 18.2091 31.3789 18.5597 30.7051ZM6.875 22C6.875 18.9667 9.34175 16.5 12.375 16.5C15.4082 16.5 17.875 18.9667 17.875 22C17.875 25.0332 15.4082 27.5 12.375 27.5C9.34175 27.5 6.875 25.0332 6.875 22Z" fill="black"/>
<path d="M38.4656 27.1631C40.975 25.4237 42.625 22.528 42.625 19.25C42.625 13.9425 38.3061 9.625 33 9.625C27.6939 9.625 23.375 13.9425 23.375 19.25C23.375 22.528 25.025 25.4237 27.5344 27.1631C21.8914 29.3604 17.875 34.8398 17.875 41.25V49.5C17.875 53.2909 20.9591 56.375 24.75 56.375H41.25C45.0409 56.375 48.125 53.2909 48.125 49.5V41.25C48.125 34.8384 44.1086 29.3604 38.4656 27.1631ZM26.125 19.25C26.125 15.4591 29.2091 12.375 33 12.375C36.7909 12.375 39.875 15.4591 39.875 19.25C39.875 23.0409 36.7909 26.125 33 26.125C29.2091 26.125 26.125 23.0409 26.125 19.25ZM45.375 49.5C45.375 51.7743 43.5243 53.625 41.25 53.625H24.75C22.4757 53.625 20.625 51.7743 20.625 49.5V41.25C20.625 34.4272 26.1759 28.875 33 28.875C39.8241 28.875 45.375 34.4272 45.375 41.25V49.5Z" fill="black"/>
</svg>
